# xmcd
#
# Track frame offsets:
#	150
#	14089
#	30619
#	43961
#	60535
#	73879
#	88681
#	105326
#	120279
#	134970
#	151030
#	166465
#	181290
#	199383
#	215248
#
# Disc length: 3090 seconds
#
# Revision: 1
# Processed by: cddbd v1.5.2PL0 Copyright (c) Steve Scherf et al.
# Submitted via: audiograbber 1.83.01
#
DISCID=df0c100f
DTITLE=AUGUSTO CESAR - TE QUERO ASSIM
DYEAR=1900
DGENRE=
TTITLE0=TE QUERO ASSIM
TTITLE1=AMIGO
TTITLE2=DELÍRIO
TTITLE3=ENTRE O TIGRE E O LEÃO
TTITLE4=SEM ELA
TTITLE5=BRIGAS DE AMOR
TTITLE6=O QUE MAIS VOCÊ QUER DE MIM
TTITLE7=ATÉ O AMANHECER
TTITLE8=CASO DE AMOR
TTITLE9=QUE PENA VOCÊ NÃO VÊ
TTITLE10=SEGREDOS
TTITLE11=NÃO SEI MAIS VIVER SEM VOCÊ
TTITLE12=O TRAVESSEIRO
TTITLE13=HOMEM COMPLETO
TTITLE14=IRONIA
EXTD=
EXTT0=
EXTT1=
EXTT2=
EXTT3=
EXTT4=
EXTT5=
EXTT6=
EXTT7=
EXTT8=
EXTT9=
EXTT10=
EXTT11=
EXTT12=
EXTT13=
EXTT14=
PLAYORDER=
